<svg width="31" height="41" viewBox="0 0 31 41" fill="none" xmlns="http://www.w3.org/2000/svg">
<path d="M24.1826 0.166016C28.0928 0.166264 30.62 3.88131 30.6201 7.58594C30.6199 11.2905 28.0927 15.0046 24.1826 15.0049C22.4352 15.0047 20.9657 14.2616 19.873 13.1104L12.6367 18.2695C12.7909 18.9097 12.873 19.5708 12.873 20.2314C12.873 20.8912 12.7905 21.5511 12.6367 22.1904L19.8779 27.3457C20.97 26.1978 22.4382 25.4572 24.1826 25.457C28.0928 25.4573 30.62 29.1723 30.6201 32.877C30.62 36.5816 28.0928 40.2957 24.1826 40.2959C20.2725 40.2956 17.7462 36.5816 17.7461 32.877C17.7461 32.2136 17.829 31.5498 17.9844 30.9072L10.7471 25.7549C9.65435 26.9066 8.18436 27.6503 6.43652 27.6504C2.52623 27.6503 0.000151071 23.9362 0 20.2314C0.000125448 16.5267 2.52621 12.8116 6.43652 12.8115C8.18351 12.8116 9.65353 13.5543 10.7461 14.7051L17.9824 9.5459C17.8285 8.90624 17.7461 8.24605 17.7461 7.58594C17.7462 3.88133 20.2725 0.166322 24.1826 0.166016ZM24.1826 29.457C23.5681 29.4573 22.7776 29.8963 22.2666 30.7744C22.2154 30.9298 22.1425 31.0802 22.0508 31.2236C21.8642 31.6846 21.7461 32.2352 21.7461 32.877C21.7462 35.1578 23.1926 36.2955 24.1826 36.2959C25.1727 36.2956 26.62 35.1579 26.6201 32.877C26.62 30.596 25.1727 29.4573 24.1826 29.457ZM6.43652 16.8115C5.44648 16.8116 4.00012 17.9503 4 20.2314C4.00014 22.5125 5.44648 23.6503 6.43652 23.6504C7.07326 23.6502 7.89628 23.1781 8.4043 22.2354C8.44273 22.1367 8.48776 22.039 8.54297 21.9453C8.74452 21.4723 8.87301 20.9018 8.87305 20.2314C8.87301 19.5609 8.74557 18.9897 8.54395 18.5166C8.48804 18.4218 8.44204 18.3236 8.40332 18.2236C7.89517 17.2828 7.07259 16.8117 6.43652 16.8115ZM24.1826 4.16602C23.1926 4.16639 21.7462 5.30509 21.7461 7.58594C21.7461 8.2571 21.8742 8.82838 22.0762 9.30176C22.1307 9.39442 22.1757 9.4903 22.2139 9.58789C22.7218 10.532 23.5454 11.0046 24.1826 11.0049C25.1726 11.0046 26.62 9.86677 26.6201 7.58594C26.62 5.30502 25.1727 4.16632 24.1826 4.16602Z" fill="#C4C2FF"/>
</svg>
